<svg xmlns="http://www.w3.org/2000/svg" width="1200" height="190" viewBox="0 0 1200 190" role="img" aria-labelledby="title description">
  <title id="title">Zunbreak GitHub activity</title>
  <desc id="description">Fourteen-day contributions, latest activity date and latest public push.</desc>
  <defs>
    <linearGradient id="signalPeak" gradientUnits="userSpaceOnUse" x1="0" y1="116" x2="0" y2="158">
      <stop offset="0" stop-color="#e8ad21" stop-opacity="0.92"/>
      <stop offset="1" stop-color="#e8ad21" stop-opacity="0.18"/>
    </linearGradient>
    <linearGradient id="signalGlow" gradientUnits="userSpaceOnUse" x1="0" y1="116" x2="0" y2="158">
      <stop offset="0" stop-color="#e8ad21" stop-opacity="0.42"/>
      <stop offset="1" stop-color="#e8ad21" stop-opacity="0.04"/>
    </linearGradient>
    <filter id="signalBlur" x="-8%" y="-80%" width="116%" height="260%">
      <feGaussianBlur stdDeviation="2.5"/>
    </filter>
  </defs>
  <rect x="1" y="1" width="1198" height="188" rx="8" fill="#07090d" stroke="#343a43" stroke-width="2"/>
  <g id="liveMark" transform="translate(28 18)">
    <g>
      <animateTransform attributeName="transform" type="rotate" values="0;0;360;360" keyTimes="0;0.22;0.78;1" dur="3.6s" repeatCount="indefinite"/>
      <g>
        <animateTransform attributeName="transform" type="scale" values="0.34;1;1;0.34" keyTimes="0;0.22;0.78;1" dur="3.6s" repeatCount="indefinite"/>
        <circle cx="0" cy="-5.20" r="1.7" fill="#e8ad21"/>
        <circle cx="4.50" cy="2.60" r="1.7" fill="#e8ad21"/>
        <circle cx="-4.50" cy="2.60" r="1.7" fill="#e8ad21"/>
      </g>
    </g>
  </g>
  <line x1="400" y1="28" x2="400" y2="102" stroke="#252b33" stroke-width="1"/>
  <line x1="800" y1="28" x2="800" y2="102" stroke="#252b33" stroke-width="1"/>
  <g font-family="ui-monospace, SFMono-Regular, Menlo, Consolas, monospace">
    <text x="36" y="52" fill="#e8ad21" font-size="14" letter-spacing="1.6">CONTRIBUTIONS · LAST 14 DAYS</text>
    <text x="36" y="94" fill="#f4f1e9" font-size="22" font-weight="700">157</text>
    <text x="428" y="52" fill="#e8ad21" font-size="14" letter-spacing="1.6">LATEST ACTIVITY</text>
    <text x="428" y="94" fill="#f4f1e9" font-size="22">27 SEP 2026</text>
    <text x="828" y="52" fill="#e8ad21" font-size="14" letter-spacing="1.6">LATEST PUBLIC PUSH</text>
    <text x="828" y="94" fill="#f4f1e9" font-size="22">ZUNBREAK · 27 SEP 2026</text>
    <text x="36" y="182" fill="#e8ad21" font-size="13" letter-spacing="0.35" font-weight="600">C:\Zunbreak&gt; Knock, knock.<tspan dx="3"><animate attributeName="opacity" values="1;0" dur="1.05s" calcMode="discrete" repeatCount="indefinite"/>█</tspan></text>
  </g>
  <path d="M 40.0 158.0 C 54.4 154.9 97.4 141.8 126.2 139.5 C 154.9 137.3 183.6 141.5 212.3 144.6 C 241.0 147.6 269.7 155.8 298.5 158.0 C 327.2 158.0 355.9 158.0 384.6 158.0 C 413.3 158.0 442.1 158.0 470.8 158.0 C 499.5 151.8 528.2 127.5 556.9 121.0 C 585.6 114.6 614.4 115.4 643.1 119.4 C 671.8 123.3 700.5 141.5 729.2 144.6 C 757.9 147.6 786.7 139.5 815.4 137.8 C 844.1 136.2 872.8 136.7 901.5 134.5 C 930.3 132.2 959.0 124.4 987.7 124.4 C 1016.4 124.4 1045.1 135.9 1073.8 134.5 C 1102.6 133.1 1145.6 119.1 1160.0 116.0 L 1160.0 158 L 40.0 158 Z" fill="#e8ad21" opacity="0.12"/>
  <rect x="37.5" y="158.0" width="5" height="2.0" fill="#e8ad21" opacity="0.12"/><rect x="123.7" y="139.5" width="5" height="18.5" fill="#e8ad21" opacity="0.42"/><rect x="209.8" y="144.6" width="5" height="13.4" fill="#e8ad21" opacity="0.36"/><rect x="296.0" y="158.0" width="5" height="2.0" fill="#e8ad21" opacity="0.12"/><rect x="382.1" y="158.0" width="5" height="2.0" fill="#e8ad21" opacity="0.12"/><rect x="468.3" y="158.0" width="5" height="2.0" fill="#e8ad21" opacity="0.12"/><rect x="554.4" y="121.0" width="5" height="37.0" fill="#e8ad21" opacity="0.62"/><rect x="640.6" y="119.4" width="5" height="38.6" fill="#e8ad21" opacity="0.63"/><rect x="726.7" y="144.6" width="5" height="13.4" fill="#e8ad21" opacity="0.36"/><rect x="812.9" y="137.8" width="5" height="20.2" fill="#e8ad21" opacity="0.44"/><rect x="899.0" y="134.5" width="5" height="23.5" fill="#e8ad21" opacity="0.47"/><rect x="985.2" y="124.4" width="5" height="33.6" fill="#e8ad21" opacity="0.58"/><rect x="1071.3" y="134.5" width="5" height="23.5" fill="#e8ad21" opacity="0.47"/><rect x="1157.5" y="116.0" width="5" height="42.0" fill="#e8ad21" opacity="0.67"/>
  <path d="M 40.0 158.0 C 54.4 154.9 97.4 141.8 126.2 139.5 C 154.9 137.3 183.6 141.5 212.3 144.6 C 241.0 147.6 269.7 155.8 298.5 158.0 C 327.2 158.0 355.9 158.0 384.6 158.0 C 413.3 158.0 442.1 158.0 470.8 158.0 C 499.5 151.8 528.2 127.5 556.9 121.0 C 585.6 114.6 614.4 115.4 643.1 119.4 C 671.8 123.3 700.5 141.5 729.2 144.6 C 757.9 147.6 786.7 139.5 815.4 137.8 C 844.1 136.2 872.8 136.7 901.5 134.5 C 930.3 132.2 959.0 124.4 987.7 124.4 C 1016.4 124.4 1045.1 135.9 1073.8 134.5 C 1102.6 133.1 1145.6 119.1 1160.0 116.0" fill="none" stroke="url(#signalGlow)" stroke-width="6" stroke-linecap="round" filter="url(#signalBlur)"/>
  <path d="M 40.0 158.0 C 54.4 154.9 97.4 141.8 126.2 139.5 C 154.9 137.3 183.6 141.5 212.3 144.6 C 241.0 147.6 269.7 155.8 298.5 158.0 C 327.2 158.0 355.9 158.0 384.6 158.0 C 413.3 158.0 442.1 158.0 470.8 158.0 C 499.5 151.8 528.2 127.5 556.9 121.0 C 585.6 114.6 614.4 115.4 643.1 119.4 C 671.8 123.3 700.5 141.5 729.2 144.6 C 757.9 147.6 786.7 139.5 815.4 137.8 C 844.1 136.2 872.8 136.7 901.5 134.5 C 930.3 132.2 959.0 124.4 987.7 124.4 C 1016.4 124.4 1045.1 135.9 1073.8 134.5 C 1102.6 133.1 1145.6 119.1 1160.0 116.0" fill="none" stroke="url(#signalPeak)" stroke-width="1.25" stroke-linecap="round"/>
</svg>
