<svg xmlns="http://www.w3.org/2000/svg" width="1200" height="190" viewBox="0 0 1200 190" role="img" aria-labelledby="title description">
  <title id="title">Zunbreak GitHub activity</title>
  <desc id="description">Fourteen-day contributions, latest activity date and latest public push.</desc>
  <defs>
    <linearGradient id="signalPeak" gradientUnits="userSpaceOnUse" x1="0" y1="130" x2="0" y2="158">
      <stop offset="0" stop-color="#e8ad21" stop-opacity="0.92"/>
      <stop offset="1" stop-color="#e8ad21" stop-opacity="0.18"/>
    </linearGradient>
    <linearGradient id="signalGlow" gradientUnits="userSpaceOnUse" x1="0" y1="130" x2="0" y2="158">
      <stop offset="0" stop-color="#e8ad21" stop-opacity="0.42"/>
      <stop offset="1" stop-color="#e8ad21" stop-opacity="0.04"/>
    </linearGradient>
    <filter id="signalBlur" x="-8%" y="-80%" width="116%" height="260%">
      <feGaussianBlur stdDeviation="2.5"/>
    </filter>
  </defs>
  <rect x="1" y="1" width="1198" height="188" rx="8" fill="#07090d" stroke="#343a43" stroke-width="2"/>
  <path d="M18 2 H1182" fill="none" stroke="#e8ad21" stroke-width="2" opacity="0.78"/>
  <line x1="400" y1="28" x2="400" y2="128" stroke="#252b33" stroke-width="1"/>
  <line x1="800" y1="28" x2="800" y2="128" stroke="#252b33" stroke-width="1"/>
  <g font-family="ui-monospace, SFMono-Regular, Menlo, Consolas, monospace">
    <text x="36" y="52" fill="#e8ad21" font-size="14" letter-spacing="1.6">CONTRIBUTIONS · LAST 14 DAYS</text>
    <text x="36" y="108" fill="#f4f1e9" font-size="42" font-weight="700">142</text>
    <text x="428" y="52" fill="#e8ad21" font-size="14" letter-spacing="1.6">LATEST ACTIVITY</text>
    <text x="428" y="108" fill="#f4f1e9" font-size="22">04 SEP 2026</text>
    <text x="828" y="52" fill="#e8ad21" font-size="14" letter-spacing="1.6">LATEST PUBLIC PUSH</text>
    <text x="828" y="108" fill="#f4f1e9" font-size="18">ZUNBREAK/ZUNBREAK · 04 SEP 2026</text>
    <text x="36" y="182" fill="#e8ad21" font-size="13" letter-spacing="0.35" font-weight="600">C:\Zunbreak&gt; Knock, knock.<tspan dx="3"><animate attributeName="opacity" values="1;0" dur="1.05s" calcMode="discrete" repeatCount="indefinite"/>█</tspan></text>
  </g>
  <path d="M 40.0 158.0 C 54.4 158.0 97.4 158.0 126.2 158.0 C 154.9 158.0 183.6 158.0 212.3 158.0 C 241.0 156.8 269.7 150.9 298.5 150.9 C 327.2 150.9 355.9 157.0 384.6 158.0 C 413.3 158.0 442.1 156.9 470.8 156.9 C 499.5 156.9 528.2 157.8 556.9 158.0 C 585.6 158.0 614.4 158.0 643.1 158.0 C 671.8 158.0 700.5 158.0 729.2 158.0 C 757.9 155.7 786.7 147.7 815.4 144.3 C 844.1 140.9 872.8 136.2 901.5 137.7 C 930.3 139.2 959.0 150.1 987.7 153.1 C 1016.4 156.0 1045.1 158.0 1073.8 155.3 C 1102.6 151.4 1145.6 134.2 1160.0 130.0 L 1160.0 158 L 40.0 158 Z" fill="#e8ad21" opacity="0.12"/>
  <rect x="37.5" y="158.0" width="5" height="2.0" fill="#e8ad21" opacity="0.12"/><rect x="123.7" y="158.0" width="5" height="2.0" fill="#e8ad21" opacity="0.12"/><rect x="209.8" y="158.0" width="5" height="2.0" fill="#e8ad21" opacity="0.12"/><rect x="296.0" y="150.9" width="5" height="7.1" fill="#e8ad21" opacity="0.33"/><rect x="382.1" y="158.0" width="5" height="2.0" fill="#e8ad21" opacity="0.12"/><rect x="468.3" y="156.9" width="5" height="2.0" fill="#e8ad21" opacity="0.24"/><rect x="554.4" y="158.0" width="5" height="2.0" fill="#e8ad21" opacity="0.12"/><rect x="640.6" y="158.0" width="5" height="2.0" fill="#e8ad21" opacity="0.12"/><rect x="726.7" y="158.0" width="5" height="2.0" fill="#e8ad21" opacity="0.12"/><rect x="812.9" y="144.3" width="5" height="13.7" fill="#e8ad21" opacity="0.44"/><rect x="899.0" y="137.7" width="5" height="20.3" fill="#e8ad21" opacity="0.55"/><rect x="985.2" y="153.1" width="5" height="4.9" fill="#e8ad21" opacity="0.30"/><rect x="1071.3" y="155.3" width="5" height="2.7" fill="#e8ad21" opacity="0.26"/><rect x="1157.5" y="130.0" width="5" height="28.0" fill="#e8ad21" opacity="0.67"/>
  <path d="M 40.0 158.0 C 54.4 158.0 97.4 158.0 126.2 158.0 C 154.9 158.0 183.6 158.0 212.3 158.0 C 241.0 156.8 269.7 150.9 298.5 150.9 C 327.2 150.9 355.9 157.0 384.6 158.0 C 413.3 158.0 442.1 156.9 470.8 156.9 C 499.5 156.9 528.2 157.8 556.9 158.0 C 585.6 158.0 614.4 158.0 643.1 158.0 C 671.8 158.0 700.5 158.0 729.2 158.0 C 757.9 155.7 786.7 147.7 815.4 144.3 C 844.1 140.9 872.8 136.2 901.5 137.7 C 930.3 139.2 959.0 150.1 987.7 153.1 C 1016.4 156.0 1045.1 158.0 1073.8 155.3 C 1102.6 151.4 1145.6 134.2 1160.0 130.0" fill="none" stroke="url(#signalGlow)" stroke-width="6" stroke-linecap="round" filter="url(#signalBlur)"/>
  <path d="M 40.0 158.0 C 54.4 158.0 97.4 158.0 126.2 158.0 C 154.9 158.0 183.6 158.0 212.3 158.0 C 241.0 156.8 269.7 150.9 298.5 150.9 C 327.2 150.9 355.9 157.0 384.6 158.0 C 413.3 158.0 442.1 156.9 470.8 156.9 C 499.5 156.9 528.2 157.8 556.9 158.0 C 585.6 158.0 614.4 158.0 643.1 158.0 C 671.8 158.0 700.5 158.0 729.2 158.0 C 757.9 155.7 786.7 147.7 815.4 144.3 C 844.1 140.9 872.8 136.2 901.5 137.7 C 930.3 139.2 959.0 150.1 987.7 153.1 C 1016.4 156.0 1045.1 158.0 1073.8 155.3 C 1102.6 151.4 1145.6 134.2 1160.0 130.0" fill="none" stroke="url(#signalPeak)" stroke-width="1.25" stroke-linecap="round"/>
</svg>
