<svg xmlns="http://www.w3.org/2000/svg" width="1200" height="190" viewBox="0 0 1200 190" role="img" aria-labelledby="title description">
  <title id="title">Zunbreak GitHub activity</title>
  <desc id="description">Fourteen-day contributions, latest activity date and latest public push.</desc>
  <defs>
    <linearGradient id="signalPeak" gradientUnits="userSpaceOnUse" x1="0" y1="116" x2="0" y2="158">
      <stop offset="0" stop-color="#e8ad21" stop-opacity="0.92"/>
      <stop offset="1" stop-color="#e8ad21" stop-opacity="0.18"/>
    </linearGradient>
    <linearGradient id="signalGlow" gradientUnits="userSpaceOnUse" x1="0" y1="116" x2="0" y2="158">
      <stop offset="0" stop-color="#e8ad21" stop-opacity="0.42"/>
      <stop offset="1" stop-color="#e8ad21" stop-opacity="0.04"/>
    </linearGradient>
    <filter id="signalBlur" x="-8%" y="-80%" width="116%" height="260%">
      <feGaussianBlur stdDeviation="2.5"/>
    </filter>
  </defs>
  <rect x="1" y="1" width="1198" height="188" rx="8" fill="#07090d" stroke="#343a43" stroke-width="2"/>
  <g id="liveMark" transform="translate(28 18)">
    <g>
      <animateTransform attributeName="transform" type="rotate" values="0;0;360;360" keyTimes="0;0.22;0.78;1" dur="3.6s" repeatCount="indefinite"/>
      <g>
        <animateTransform attributeName="transform" type="scale" values="0.34;1;1;0.34" keyTimes="0;0.22;0.78;1" dur="3.6s" repeatCount="indefinite"/>
        <circle cx="0" cy="-5.20" r="1.7" fill="#e8ad21"/>
        <circle cx="4.50" cy="2.60" r="1.7" fill="#e8ad21"/>
        <circle cx="-4.50" cy="2.60" r="1.7" fill="#e8ad21"/>
      </g>
    </g>
  </g>
  <line x1="400" y1="28" x2="400" y2="102" stroke="#252b33" stroke-width="1"/>
  <line x1="800" y1="28" x2="800" y2="102" stroke="#252b33" stroke-width="1"/>
  <g font-family="ui-monospace, SFMono-Regular, Menlo, Consolas, monospace">
    <text x="36" y="52" fill="#e8ad21" font-size="14" letter-spacing="1.6">CONTRIBUTIONS · LAST 14 DAYS</text>
    <text x="36" y="94" fill="#f4f1e9" font-size="22" font-weight="700">109</text>
    <text x="428" y="52" fill="#e8ad21" font-size="14" letter-spacing="1.6">LATEST ACTIVITY</text>
    <text x="428" y="94" fill="#f4f1e9" font-size="22">25 SEP 2026</text>
    <text x="828" y="52" fill="#e8ad21" font-size="14" letter-spacing="1.6">LATEST PUBLIC PUSH</text>
    <text x="828" y="94" fill="#f4f1e9" font-size="22">ZUNBREAK · 22 SEP 2026</text>
    <text x="36" y="182" fill="#e8ad21" font-size="13" letter-spacing="0.35" font-weight="600">C:\Zunbreak&gt; Knock, knock.<tspan dx="3"><animate attributeName="opacity" values="1;0" dur="1.05s" calcMode="discrete" repeatCount="indefinite"/>█</tspan></text>
  </g>
  <path d="M 40.0 158.0 C 54.4 158.0 97.4 158.0 126.2 158.0 C 154.9 158.0 183.6 158.0 212.3 158.0 C 241.0 154.7 269.7 140.3 298.5 137.9 C 327.2 135.5 355.9 140.0 384.6 143.4 C 413.3 146.7 442.1 155.6 470.8 158.0 C 499.5 158.0 528.2 158.0 556.9 158.0 C 585.6 158.0 614.4 158.0 643.1 158.0 C 671.8 151.3 700.5 124.8 729.2 117.8 C 757.9 110.8 786.7 111.7 815.4 116.0 C 844.1 120.3 872.8 140.0 901.5 143.4 C 930.3 146.7 959.0 137.9 987.7 136.1 C 1016.4 134.3 1045.1 132.1 1073.8 132.4 C 1102.6 132.7 1145.6 137.0 1160.0 137.9 L 1160.0 158 L 40.0 158 Z" fill="#e8ad21" opacity="0.12"/>
  <rect x="37.5" y="158.0" width="5" height="2.0" fill="#e8ad21" opacity="0.12"/><rect x="123.7" y="158.0" width="5" height="2.0" fill="#e8ad21" opacity="0.12"/><rect x="209.8" y="158.0" width="5" height="2.0" fill="#e8ad21" opacity="0.12"/><rect x="296.0" y="137.9" width="5" height="20.1" fill="#e8ad21" opacity="0.44"/><rect x="382.1" y="143.4" width="5" height="14.6" fill="#e8ad21" opacity="0.38"/><rect x="468.3" y="158.0" width="5" height="2.0" fill="#e8ad21" opacity="0.12"/><rect x="554.4" y="158.0" width="5" height="2.0" fill="#e8ad21" opacity="0.12"/><rect x="640.6" y="158.0" width="5" height="2.0" fill="#e8ad21" opacity="0.12"/><rect x="726.7" y="117.8" width="5" height="40.2" fill="#e8ad21" opacity="0.65"/><rect x="812.9" y="116.0" width="5" height="42.0" fill="#e8ad21" opacity="0.67"/><rect x="899.0" y="143.4" width="5" height="14.6" fill="#e8ad21" opacity="0.38"/><rect x="985.2" y="136.1" width="5" height="21.9" fill="#e8ad21" opacity="0.45"/><rect x="1071.3" y="132.4" width="5" height="25.6" fill="#e8ad21" opacity="0.49"/><rect x="1157.5" y="137.9" width="5" height="20.1" fill="#e8ad21" opacity="0.44"/>
  <path d="M 40.0 158.0 C 54.4 158.0 97.4 158.0 126.2 158.0 C 154.9 158.0 183.6 158.0 212.3 158.0 C 241.0 154.7 269.7 140.3 298.5 137.9 C 327.2 135.5 355.9 140.0 384.6 143.4 C 413.3 146.7 442.1 155.6 470.8 158.0 C 499.5 158.0 528.2 158.0 556.9 158.0 C 585.6 158.0 614.4 158.0 643.1 158.0 C 671.8 151.3 700.5 124.8 729.2 117.8 C 757.9 110.8 786.7 111.7 815.4 116.0 C 844.1 120.3 872.8 140.0 901.5 143.4 C 930.3 146.7 959.0 137.9 987.7 136.1 C 1016.4 134.3 1045.1 132.1 1073.8 132.4 C 1102.6 132.7 1145.6 137.0 1160.0 137.9" fill="none" stroke="url(#signalGlow)" stroke-width="6" stroke-linecap="round" filter="url(#signalBlur)"/>
  <path d="M 40.0 158.0 C 54.4 158.0 97.4 158.0 126.2 158.0 C 154.9 158.0 183.6 158.0 212.3 158.0 C 241.0 154.7 269.7 140.3 298.5 137.9 C 327.2 135.5 355.9 140.0 384.6 143.4 C 413.3 146.7 442.1 155.6 470.8 158.0 C 499.5 158.0 528.2 158.0 556.9 158.0 C 585.6 158.0 614.4 158.0 643.1 158.0 C 671.8 151.3 700.5 124.8 729.2 117.8 C 757.9 110.8 786.7 111.7 815.4 116.0 C 844.1 120.3 872.8 140.0 901.5 143.4 C 930.3 146.7 959.0 137.9 987.7 136.1 C 1016.4 134.3 1045.1 132.1 1073.8 132.4 C 1102.6 132.7 1145.6 137.0 1160.0 137.9" fill="none" stroke="url(#signalPeak)" stroke-width="1.25" stroke-linecap="round"/>
</svg>
